<svg width="16" height="16" viewBox="0 0 16 16" fill="none"
    xmlns="http://www.w3.org/2000/svg">
    <path fill-rule="evenodd" clip-rule="evenodd" d="M5.58645 2.36645C5.78171 2.17119 6.09829 2.17119 6.29356 2.36645L10.6402 6.71311C11.3488 7.42171 11.3488 8.57829 10.6402 9.28689L6.29356 13.6336C6.09829 13.8288 5.78171 13.8288 5.58645 13.6336C5.39119 13.4383 5.39119 13.1217 5.58645 12.9264L9.93312 8.57978C10.2512 8.26171 10.2512 7.73829 9.93312 7.42022L5.58645 3.07355C5.39119 2.87829 5.39119 2.56171 5.58645 2.36645Z" fill="currentColor" />
    <path d="M5.46864 2.24864C5.72899 1.98829 6.151 1.98829 6.41135 2.24864L10.7584 6.59499C11.532 7.36865 11.532 8.6312 10.7584 9.40489L6.41135 13.7512C6.151 14.0116 5.72899 14.0116 5.46864 13.7512C5.20834 13.4909 5.20831 13.0689 5.46864 12.8085L9.81499 8.46218C10.068 8.2092 10.068 7.79134 9.81499 7.53835L5.46864 3.19135C5.20829 2.931 5.20829 2.50899 5.46864 2.24864ZM6.17567 2.48431C6.0455 2.35414 5.83449 2.35414 5.70432 2.48431C5.57414 2.61449 5.57414 2.82549 5.70432 2.95567L10.0507 7.30267C10.4338 7.68583 10.4338 8.3147 10.0507 8.69786L5.70432 13.0442C5.57416 13.1744 5.57419 13.3854 5.70432 13.5156C5.83449 13.6457 6.0455 13.6457 6.17567 13.5156L10.5227 9.16921C11.1661 8.5257 11.1661 7.47416 10.5227 6.83067L6.17567 2.48431Z" fill="currentColor" />
</svg>